<svg width="288" height="283" viewBox="0 0 288 283" fill="none" xmlns="http://www.w3.org/2000/svg">
<path d="M144.227 73.4549V9.02734" stroke="#2E2E2E" stroke-width="3.84331" stroke-linecap="square" stroke-linejoin="round"/>
<path d="M139.844 91.8069V36.062" stroke="#2E2E2E" stroke-width="2.56221" stroke-linecap="square" stroke-linejoin="round"/>
<path d="M139.844 91.8069V36.062" stroke="#2E2E2E" stroke-width="2.56221" stroke-linecap="square" stroke-linejoin="round"/>
<path d="M133.976 103.632V56.333" stroke="#2E2E2E" stroke-width="1.60138" stroke-linecap="square" stroke-linejoin="round"/>
<path d="M94.8591 103.632V76.6038" stroke="#2E2E2E" stroke-width="1.60138" stroke-linecap="square" stroke-linejoin="round"/>
<path d="M90.9475 91.807V62.0933" stroke="#2E2E2E" stroke-width="2.56221" stroke-linecap="square" stroke-linejoin="round"/>
<path d="M197.542 91.807V62.0933" stroke="#2E2E2E" stroke-width="2.56221" stroke-linecap="square" stroke-linejoin="round"/>
<path d="M81.1682 74.9147V41.1299" stroke="#2E2E2E" stroke-width="3.20276" stroke-linecap="square" stroke-linejoin="round"/>
<path d="M7.82349 277.623V74.9146" stroke="#2E2E2E" stroke-width="3.20276" stroke-linecap="square" stroke-linejoin="round"/>
<path d="M8.85132 73.455L143.059 2.27051" stroke="#2E2E2E" stroke-width="3.20276" stroke-linecap="square" stroke-linejoin="round"/>
<path d="M280.142 73.455L145.934 2.27051" stroke="#2E2E2E" stroke-width="3.20276" stroke-linecap="square" stroke-linejoin="round"/>
<path d="M280.666 277.623V74.9146" stroke="#2E2E2E" stroke-width="3.20276" stroke-linecap="square" stroke-linejoin="round"/>
<path d="M8.58154 79.6072H279.872" stroke="#2E2E2E" stroke-width="3.20276" stroke-linecap="square" stroke-linejoin="round"/>
<path d="M143.059 74.9145L81.6572 36.062" stroke="#2E2E2E" stroke-width="1.2811" stroke-linecap="square" stroke-linejoin="round"/>
<path d="M137.888 91.807L92.9033 59.7114" stroke="#2E2E2E" stroke-width="1.2811" stroke-linecap="square" stroke-linejoin="round"/>
<path d="M133.976 103.632L93.8813 74.9146" stroke="#2E2E2E" stroke-width="1.2811" stroke-linecap="square" stroke-linejoin="round"/>
<path d="M173.583 103.632V76.6038" stroke="#2E2E2E" stroke-width="1.60138" stroke-linecap="square" stroke-linejoin="round"/>
<path d="M134.465 103.632L174.56 74.9146" stroke="#2E2E2E" stroke-width="1.2811" stroke-linecap="square" stroke-linejoin="round"/>
<path d="M142.778 91.807L195.586 59.7114" stroke="#2E2E2E" stroke-width="1.2811" stroke-linecap="square" stroke-linejoin="round"/>
<path d="M207.603 74.9147V41.1299" stroke="#2E2E2E" stroke-width="3.20276" stroke-linecap="square" stroke-linejoin="round"/>
<path d="M145.711 74.9145L207.114 36.062" stroke="#2E2E2E" stroke-width="1.2811" stroke-linecap="square" stroke-linejoin="round"/>
<path d="M276.265 281.312H0.978027" stroke="#2E2E2E" stroke-width="1.2811" stroke-linecap="round" stroke-linejoin="round"/>
<path d="M287.022 281.312H276.265" stroke="#2E2E2E" stroke-width="1.2811" stroke-linecap="round" stroke-linejoin="round"/>
<path d="M8.80151 81.6714L27.3274 105.321" stroke="#2E2E2E" stroke-width="1.2811" stroke-linecap="round" stroke-linejoin="round"/>
<path d="M279.199 78.293L260.618 105.321" stroke="#2E2E2E" stroke-width="1.2811" stroke-linecap="round" stroke-linejoin="round"/>
<path d="M17.6028 277.623V95.1853" stroke="#2E2E2E" stroke-width="1.2811" stroke-linecap="round" stroke-linejoin="round"/>
<path d="M27.3274 272.172V105.321" stroke="#2E2E2E" stroke-width="1.2811" stroke-linecap="round" stroke-linejoin="round"/>
<path d="M260.618 272.172V105.321" stroke="#2E2E2E" stroke-width="1.2811" stroke-linecap="round" stroke-linejoin="round"/>
<path d="M269.908 277.623V95.1853" stroke="#2E2E2E" stroke-width="1.2811" stroke-linecap="round" stroke-linejoin="round"/>
<path fill-rule="evenodd" clip-rule="evenodd" d="M27.3821 272.172H260.618L281.644 282.691L7.82349 281.002L27.3821 272.172ZM27.6334 275.551L22.8357 277.716L267.689 279.226L260.34 275.549L27.6334 275.551Z" fill="#2E2E2E"/>
<path d="M27.3274 105.321H260.618" stroke="#2E2E2E" stroke-width="1.2811" stroke-linecap="round" stroke-linejoin="round"/>
<path d="M18.0918 95.2986H267.69" stroke="#2E2E2E" stroke-width="1.92166" stroke-linecap="round" stroke-linejoin="round"/>
<path d="M18.0918 93.4961L144.734 31.822L268.93 95.1854" stroke="#2E2E2E" stroke-width="2.24193" stroke-linecap="round" stroke-linejoin="round"/>
<path d="M27.3821 105.321L133.976 54.6436L260.129 105.321" stroke="#2E2E2E" stroke-width="1.2811" stroke-linecap="round" stroke-linejoin="round"/>
<path d="M105.616 106.627V272.172" stroke="#2E2E2E" stroke-width="1.2811" stroke-linecap="round" stroke-linejoin="round"/>
<path d="M81.1682 79.9822V277.623" stroke="#2E2E2E" stroke-width="3.20276" stroke-linecap="square" stroke-linejoin="round"/>
<path d="M207.321 80.8269V278.468" stroke="#2E2E2E" stroke-width="3.20276" stroke-linecap="square" stroke-linejoin="round"/>
<path d="M182.873 106.627V272.172" stroke="#2E2E2E" stroke-width="1.2811" stroke-linecap="round" stroke-linejoin="round"/>
<path d="M9.7793 139.107H79.2122" stroke="#2E2E2E" stroke-width="1.2811" stroke-linecap="square" stroke-linejoin="round"/>
<path d="M9.7793 242.151H79.2122" stroke="#2E2E2E" stroke-width="1.2811" stroke-linecap="square" stroke-linejoin="round"/>
<path d="M209.277 139.107H278.71" stroke="#2E2E2E" stroke-width="1.2811" stroke-linecap="square" stroke-linejoin="round"/>
<path d="M209.277 242.151H278.71" stroke="#2E2E2E" stroke-width="1.2811" stroke-linecap="square" stroke-linejoin="round"/>
</svg>
