<svg width="89" height="151" viewBox="0 0 89 151" fill="none" xmlns="http://www.w3.org/2000/svg">
<g clip-path="url(#clip0_1_2480)">
<g clip-path="url(#clip1_1_2480)">
<g clip-path="url(#clip2_1_2480)">
<path d="M18.7134 115.048C11.9855 112.003 7.80828 107.76 7.80828 103.068V82.6337L7.79358 81.7238" stroke="black" stroke-width="3.49971" stroke-linejoin="round"/>
<path d="M7.90132 74.7565L7.80823 31.9523C7.80823 22.7047 24.0392 15.1964 44.0309 15.1964C64.0226 15.1964 80.2522 22.7047 80.2522 31.9523V73.2188" stroke="black" stroke-width="3.49971" stroke-linejoin="round"/>
<path d="M80.2522 82.6337V103.068C80.2522 107.827 75.9559 112.123 69.0615 115.177" stroke="black" stroke-width="3.49971" stroke-linejoin="round"/>
<path d="M62.7831 117.403C56.6696 119.052 50.3612 119.866 44.0295 119.824C37.7041 119.866 31.402 119.053 25.2942 117.408" stroke="black" stroke-width="3.49971" stroke-linejoin="round"/>
<path d="M25.3474 16.2848H62.7117V10.9478H25.3474V16.2848Z" stroke="black" stroke-width="0.699942" stroke-linejoin="round"/>
<path d="M25.2942 9.72639H62.6585V7.87854H25.2942V9.72639Z" stroke="black" stroke-width="0.699942" stroke-linejoin="round"/>
<path d="M33.2644 124.17H46.5577V119.676H33.2644V124.17Z" stroke="black" stroke-width="0.699942" stroke-linejoin="round"/>
<path d="M51.6533 124.17H55.5611V119.526H51.6533V124.17Z" stroke="black" stroke-width="0.699942" stroke-linejoin="round"/>
<path d="M33.2644 126.389H46.5577V124.977H33.2644V126.389Z" stroke="black" stroke-width="0.699942" stroke-linejoin="round"/>
<path d="M50.623 126.389H56.5942V124.977H50.623V126.389Z" stroke="black" stroke-width="0.699942" stroke-linejoin="round"/>
<path d="M11.8903 150.29H32.407" stroke="black" stroke-width="1.39988" stroke-linejoin="round"/>
<path d="M55.2265 150.29H75.7439" stroke="black" stroke-width="1.39988" stroke-linejoin="round"/>
<path d="M38.4986 129.213H41.2249" stroke="black" stroke-width="0.279977" stroke-linejoin="round"/>
<path d="M52.319 135.289H55.0452" stroke="black" stroke-width="0.279977" stroke-linejoin="round"/>
<path d="M35.246 133.934V136.641" stroke="black" stroke-width="0.314974" stroke-linejoin="round"/>
<path d="M49.0656 139.803V142.512" stroke="black" stroke-width="0.314974" stroke-linejoin="round"/>
<path d="M18.95 149.226H25.3474V96.4911H18.95V149.226Z" stroke="black" stroke-width="2.09982" stroke-linejoin="round"/>
<path d="M62.7082 149.226H69.1064V96.4911H62.7082V149.226Z" stroke="black" stroke-width="2.09982" stroke-linejoin="round"/>
<path d="M18.8576 100.331H15.3054V91.5726H29.1831V100.182H26.2062" stroke="black" stroke-width="0.314974" stroke-linejoin="round"/>
<path d="M62.0985 100.331H58.5463V91.5726H72.4241V100.182H69.4465" stroke="black" stroke-width="0.314974" stroke-linejoin="round"/>
<path d="M9.2998 31.482H80.2522" stroke="black" stroke-width="0.699942" stroke-linejoin="round"/>
<path d="M9.2998 104.17H18.4473" stroke="black" stroke-width="0.699942" stroke-linejoin="round"/>
<path d="M68.7032 104.17H79.0763" stroke="black" stroke-width="0.699942" stroke-linejoin="round"/>
<path d="M25.3474 104.17H61.9509" stroke="black" stroke-width="0.699942" stroke-linejoin="round"/>
<path d="M38.4713 127.147V126.389H41.1808V131.802C41.1795 133.085 40.6689 134.316 39.7612 135.223C38.8535 136.13 37.6228 136.64 36.3393 136.641H25.3502V133.932H31.9913C31.9913 133.932 33.6704 133.932 35.428 133.932C35.8328 133.946 36.2361 133.877 36.6132 133.729C36.9903 133.582 37.3332 133.358 37.6208 133.073C37.9085 132.788 38.1347 132.447 38.2856 132.071C38.4366 131.695 38.5091 131.293 38.4986 130.888C38.4986 129.129 38.4713 127.912 38.4713 127.142" stroke="black" stroke-width="0.699942" stroke-linejoin="round"/>
<path d="M52.3008 134.252L52.2917 126.439H55.0011V137.671C55.0006 138.955 54.4902 140.186 53.5823 141.094C52.6743 142.002 51.443 142.512 50.1589 142.513H25.801V139.804H45.8151M52.3043 134.252C52.3043 135.022 52.3225 135.003 52.3225 136.762C52.3323 137.166 52.2594 137.568 52.1082 137.944C51.957 138.319 51.7307 138.66 51.4431 138.944C51.1556 139.229 50.8129 139.452 50.436 139.6C50.0592 139.747 49.6562 139.816 49.2518 139.802C47.4943 139.802 45.8151 139.802 45.8151 139.802" stroke="black" stroke-width="0.699942" stroke-linejoin="round"/>
<path d="M64.0493 34.9523C65.3784 34.9528 66.653 35.4811 67.5929 36.4209C68.5327 37.3608 69.061 38.6354 69.0616 39.9645C69.0608 41.2936 68.5325 42.568 67.5926 43.5077C66.6528 44.4474 65.3783 44.9756 64.0493 44.9761C62.7202 44.9756 61.4458 44.4474 60.5059 43.5077C59.5661 42.568 59.0377 41.2936 59.037 39.9645C59.0375 38.6354 59.5658 37.3608 60.5057 36.4209C61.4455 35.4811 62.7201 34.9528 64.0493 34.9523Z" stroke="black" stroke-width="0.699942" stroke-linecap="square" stroke-linejoin="round"/>
<path d="M64.0493 36.6503C64.9281 36.6507 65.7709 37 66.3924 37.6215C67.0138 38.2429 67.3631 39.0857 67.3635 39.9646C67.3631 40.8434 67.0138 41.6862 66.3924 42.3077C65.7709 42.9291 64.9281 43.2784 64.0493 43.2788C63.1704 43.2784 62.3276 42.9291 61.7062 42.3077C61.0847 41.6862 60.7354 40.8434 60.735 39.9646C60.7354 39.0857 61.0847 38.2429 61.7062 37.6215C62.3276 37 63.1704 36.6507 64.0493 36.6503Z" stroke="black" stroke-width="0.349971" stroke-linecap="square" stroke-linejoin="round"/>
<path fill-rule="evenodd" clip-rule="evenodd" d="M1.534 83.5856H40.5256V73.1005H1.534V83.5856ZM3.63382 81.4858H38.4258V75.1968H3.63382V81.4858Z" fill="black"/>
<path d="M31.4663 51.5633L31.6917 5.68282C31.6917 5.68282 31.2017 1.61966 26.1439 1.75335C21.3185 1.88074 21.0533 5.8977 21.0533 5.8977L20.9672 18.6009" stroke="black" stroke-width="3.49971" stroke-linejoin="round"/>
<path d="M31.4355 66.3978V73.09" stroke="black" stroke-width="3.49971" stroke-linejoin="round"/>
<path fill-rule="evenodd" clip-rule="evenodd" d="M27.905 53.7681H27.646C27.4604 53.7681 27.2823 53.6944 27.1511 53.5631C27.0198 53.4319 26.946 53.2538 26.946 53.0682V51.8034C26.946 51.6178 27.0198 51.4397 27.1511 51.3085C27.2823 51.1772 27.4604 51.1035 27.646 51.1035H35.225C35.4106 51.1035 35.5886 51.1772 35.7199 51.3085C35.8512 51.4397 35.9249 51.6178 35.9249 51.8034V53.0682C35.9249 53.2538 35.8512 53.4319 35.7199 53.5631C35.5886 53.6944 35.4106 53.7681 35.225 53.7681H35.036L34.896 64.3981H35.225C35.4106 64.3981 35.5886 64.4719 35.7199 64.6032C35.8512 64.7344 35.9249 64.9125 35.9249 65.0981V66.3986C35.9249 66.5842 35.8512 66.7622 35.7199 66.8935C35.5886 67.0248 35.4106 67.0985 35.225 67.0985H27.646C27.4604 67.0985 27.2823 67.0248 27.1511 66.8935C27.0198 66.7622 26.946 66.5842 26.946 66.3986V65.0981C26.946 64.9125 27.0198 64.7344 27.1511 64.6032C27.2823 64.4719 27.4604 64.3981 27.646 64.3981H27.9148C27.9197 61.2736 27.9092 55.7161 27.905 53.7681ZM35.225 51.8034H27.646V53.0682H28.6035C28.6035 53.0682 28.6231 61.5725 28.6133 65.0981H27.646V66.3986H35.225V65.0981H34.1869L34.343 53.0682H35.225V51.8034Z" fill="black"/>
<path d="M27.646 53.0682H35.225" stroke="black" stroke-width="0.24498" stroke-linejoin="round"/>
<path d="M27.646 64.9812H35.225" stroke="black" stroke-width="0.24498" stroke-linejoin="round"/>
<path d="M57.096 51.5633L56.8741 5.68212C56.8741 5.68212 57.3641 1.61896 62.4219 1.75265C67.2473 1.88004 67.5126 5.89701 67.5126 5.89701L67.6014 18.6002" stroke="black" stroke-width="3.49971" stroke-linejoin="round"/>
<path d="M57.1268 66.3978V73.414" stroke="black" stroke-width="3.49971" stroke-linejoin="round"/>
<path fill-rule="evenodd" clip-rule="evenodd" d="M53.5284 53.7681H53.3373C53.1517 53.7681 52.9737 53.6944 52.8424 53.5631C52.7111 53.4319 52.6374 53.2538 52.6374 53.0682V51.8034C52.6374 51.6178 52.7111 51.4397 52.8424 51.3085C52.9737 51.1772 53.1517 51.1035 53.3373 51.1035H60.9163C61.1019 51.1035 61.28 51.1772 61.4112 51.3085C61.5425 51.4397 61.6162 51.6178 61.6162 51.8034V53.0682C61.6162 53.2538 61.5425 53.4319 61.4112 53.5631C61.28 53.6944 61.1019 53.7681 60.9163 53.7681H60.6573C60.6531 55.7161 60.6426 61.2736 60.6475 64.3981H60.9163C61.1019 64.3981 61.28 64.4719 61.4112 64.6032C61.5425 64.7344 61.6162 64.9125 61.6162 65.0981V66.3986C61.6162 66.5842 61.5425 66.7622 61.4112 66.8935C61.28 67.0248 61.1019 67.0985 60.9163 67.0985H53.3373C53.1517 67.0985 52.9737 67.0248 52.8424 66.8935C52.7111 66.7622 52.6374 66.5842 52.6374 66.3986V65.0981C52.6374 64.9125 52.7111 64.7344 52.8424 64.6032C52.9737 64.4719 53.1517 64.3981 53.3373 64.3981H53.6663L53.5284 53.7681ZM53.3373 51.8034H60.9163V53.0682H59.9595C59.9595 53.0682 59.9399 61.5725 59.9497 65.0981H60.917V66.3986H53.3373V65.0981H54.3753L54.2193 53.0682H53.3373V51.8034Z" fill="black"/>
<path d="M60.9163 53.0682H53.3373" stroke="black" stroke-width="0.24498" stroke-linejoin="round"/>
<path d="M60.9163 64.9812H53.3373" stroke="black" stroke-width="0.24498" stroke-linejoin="round"/>
<path fill-rule="evenodd" clip-rule="evenodd" d="M45.6947 83.7074H86.7113V73.2188H45.6947V83.7074ZM47.7945 81.6076H84.6115V75.3186H47.7945V81.6076Z" fill="black"/>
<path fill-rule="evenodd" clip-rule="evenodd" d="M40.5256 86.237H43.0951V70.6892H40.5256V86.237ZM41.5755 85.1871H42.0452V71.7391H41.5755V85.1871Z" fill="black"/>
<path fill-rule="evenodd" clip-rule="evenodd" d="M43.7426 86.2685H46.312V70.7207H43.7426V86.2685ZM44.7925 85.2186H45.2621V71.7706H44.7932L44.7925 85.2186Z" fill="black"/>
<path fill-rule="evenodd" clip-rule="evenodd" d="M85.7167 85.9843H88.2862V70.4365H85.7167V85.9843ZM86.7666 84.9344H87.2362V71.4864H86.7666V84.9344Z" fill="black"/>
<path fill-rule="evenodd" clip-rule="evenodd" d="M0.00390625 85.9843H2.57339V70.4365H0.00390625V85.9843ZM1.05382 84.9344H1.52348V71.4864H1.05382V84.9344Z" fill="black"/>
</g>
</g>
</g>
<defs>
<clipPath id="clip0_1_2480">
<rect width="88.28" height="151" fill="white"/>
</clipPath>
<clipPath id="clip1_1_2480">
<rect width="88.28" height="151" fill="white"/>
</clipPath>
<clipPath id="clip2_1_2480">
<rect width="88.2822" height="150.99" fill="white" transform="translate(0.00390625)"/>
</clipPath>
</defs>
</svg>
