<svg width="130" height="125" viewBox="0 0 130 125" fill="none" xmlns="http://www.w3.org/2000/svg">
<path d="M1.47217 56.1322H16.4106V33.537H1.47217V56.1322Z" stroke="black" stroke-width="1.39991" stroke-linejoin="round"/>
<path d="M3.28711 54.3228H14.5886V35.2393H3.28711V54.3228Z" stroke="black" stroke-width="0.559964" stroke-linejoin="round"/>
<path d="M4.10474 33.537V27.1772C4.10529 26.2 4.49374 25.2629 5.18474 24.5719C5.87574 23.8809 6.81278 23.4925 7.79 23.4919H10.0929C11.0701 23.4925 12.0071 23.8809 12.6981 24.5719C13.3891 25.2629 13.7776 26.2 13.7781 27.1772V33.537H4.10474Z" stroke="black" stroke-width="1.39991" stroke-linejoin="round"/>
<path d="M6.16187 30.5195V27.3396C6.20116 26.8153 6.44571 26.3276 6.84241 25.9826C7.23911 25.6375 7.75593 25.4629 8.28063 25.4966H9.60495C10.1296 25.4629 10.6465 25.6375 11.0432 25.9826C11.4399 26.3276 11.6844 26.8153 11.7237 27.3396V30.5195H6.16187Z" stroke="black" stroke-width="0.349978" stroke-linejoin="round"/>
<path d="M12.6981 56.1322V62.5221L10.7116 64.5065H6.74564L4.76196 62.5221V56.1322H12.6981Z" stroke="black" stroke-width="1.39991" stroke-linejoin="round"/>
<path d="M100.229 16.892V56.5886L106.855 70.7977H115.129" stroke="black" stroke-width="1.04993" stroke-linejoin="round"/>
<path d="M92.1016 56.6376H100.229" stroke="black" stroke-width="0.524966" stroke-linejoin="round"/>
<path d="M94.7019 82.3833H106.855V77.8497H94.7019V82.3833Z" stroke="black" stroke-width="1.39991" stroke-linejoin="round"/>
<path d="M93.6045 89.4844H106.855V84.9508H93.6045V89.4844Z" stroke="black" stroke-width="1.39991" stroke-linejoin="round"/>
<path d="M92.8408 96.5931H106.855V92.0595H92.8408V96.5931Z" stroke="black" stroke-width="1.39991" stroke-linejoin="round"/>
<path d="M92.8408 103.871H106.855V99.337H92.8408V103.871Z" stroke="black" stroke-width="1.39991" stroke-linejoin="round"/>
<path d="M91.4717 111.072H106.855V106.539H91.4717V111.072Z" stroke="black" stroke-width="1.39991" stroke-linejoin="round"/>
<path d="M91.4717 118.348H106.855V113.815H91.4717V118.348Z" stroke="black" stroke-width="1.39991" stroke-linejoin="round"/>
<path d="M62.0099 36.4411H53.077C51.5 36.6063 49.9716 37.0835 48.5806 37.8448C47.1897 38.6062 45.9641 39.6366 44.9751 40.876C41.7588 44.6978 41.9051 49.687 41.9051 49.687V91.8789C41.9051 91.8789 41.6825 98.2177 37.9153 102.291C33.3292 107.248 28.5933 106.98 28.5933 106.98H21.0646C19.3659 106.989 17.6854 106.631 16.1372 105.932C14.589 105.233 13.2093 104.209 12.0919 102.93C8.3611 98.7714 8.60608 91.8929 8.60608 91.8929V64.9958" stroke="black" stroke-width="3.49978" stroke-linejoin="round"/>
<path d="M69.4379 26.2609H62.01V46.6212H69.5695" stroke="black" stroke-width="1.04993" stroke-linejoin="round"/>
<path d="M107.294 2.33297C106.65 2.97329 106.097 3.69889 105.649 4.48953L99.6927 16.1144H85.4837L70.7146 18.77V52.0102L85.4774 56.8287H90.7865L94.0063 76.6059L90.7123 116.93C90.7123 116.93 90.4022 119.743 90.7949 120.906C91.623 123.363 93.559 123.208 93.559 123.208H108.748C109.466 123.095 110.151 122.824 110.752 122.414C111.353 122.005 111.855 121.467 112.223 120.84C112.936 119.459 113.376 117.954 113.52 116.407C113.52 116.407 115.488 98.0497 115.678 90.563C115.815 85.5742 115.647 80.5817 115.175 75.6134C114.992 73.7788 114.903 72.5616 115.293 72.0702C115.897 71.3108 117.301 71.4871 117.301 71.4871H120.911C120.911 71.4871 124.109 71.5095 125.83 70.0172C126.531 69.4322 127.099 68.7027 127.493 67.8786C127.887 67.0544 128.099 66.1549 128.114 65.2414V9.20373C128.115 7.49606 127.593 5.82897 126.618 4.42724C126.052 3.68759 125.342 3.06944 124.532 2.6096C123.722 2.14976 122.828 1.85763 121.902 1.75061L110.288 1.79471C110.288 1.79471 108.112 1.74011 107.294 2.33297Z" stroke="black" stroke-width="3.49978"/>
<path d="M113.876 3.37659V70.7991" stroke="black" stroke-width="0.454971" stroke-linejoin="round"/>
<path d="M124.188 3.37659V70.7991" stroke="black" stroke-width="0.454971" stroke-linejoin="round"/>
<path d="M85.3423 16.892V56.6376" stroke="black" stroke-width="0.454971" stroke-linejoin="round"/>
<path d="M63.5217 25.869V46.4476" stroke="black" stroke-width="0.454971" stroke-linejoin="round"/>
<path d="M114.672 3.37659V70.7991" stroke="black" stroke-width="0.244984" stroke-linejoin="round"/>
<path d="M73.5317 18.8288V53.4066" stroke="black" stroke-width="0.244984" stroke-linejoin="round"/>
</svg>
